<?xml version="1.0" encoding="UTF-8"?>
<svg xmlns="http://www.w3.org/2000/svg" xmlns:xlink="http://www.w3.org/1999/xlink" width="13pt" height="13pt" viewBox="0 0 13 13" version="1.1">
<g id="surface1">
<path style=" stroke:none;fill-rule:nonzero;fill:rgb(87.45098%,87.45098%,88.235294%);fill-opacity:1;" d="M 7.46875 7.890625 L 4.8125 9.425781 C 4.632812 9.53125 4.402344 9.464844 4.296875 9.285156 L 2.875 6.828125 C 2.769531 6.648438 2.835938 6.417969 3.019531 6.3125 L 5.671875 4.777344 Z M 7.46875 7.890625 "/>
<path style=" stroke:none;fill-rule:nonzero;fill:rgb(87.45098%,87.45098%,88.235294%);fill-opacity:1;" d="M 8.738281 6.238281 L 8.472656 6.390625 C 8.425781 6.417969 8.375 6.398438 8.347656 6.363281 L 8.128906 5.980469 C 8.101562 5.933594 8.117188 5.882812 8.15625 5.855469 L 8.425781 5.703125 C 8.472656 5.671875 8.519531 5.691406 8.550781 5.730469 L 8.769531 6.113281 C 8.796875 6.152344 8.789062 6.207031 8.738281 6.238281 M 7.421875 4.757812 C 7.394531 4.710938 7.414062 4.660156 7.449219 4.632812 L 7.71875 4.480469 C 7.765625 4.449219 7.8125 4.46875 7.84375 4.507812 L 8.0625 4.890625 C 8.089844 4.9375 8.070312 4.984375 8.03125 5.015625 L 7.765625 5.167969 C 7.71875 5.195312 7.671875 5.175781 7.640625 5.140625 Z M 6.09375 5.035156 L 7.441406 7.363281 L 10.105469 5.828125 L 8.757812 3.496094 Z M 6.09375 5.035156 "/>
<path style=" stroke:none;fill-rule:nonzero;fill:rgb(87.45098%,87.45098%,88.235294%);fill-opacity:1;" d="M 6.476562 1.03125 C 6.464844 1.03125 6.457031 1.03125 6.4375 1.042969 L 1.851562 2.980469 C 1.804688 3 1.777344 3.046875 1.777344 3.105469 L 1.777344 7.136719 C 1.777344 7.15625 1.777344 7.171875 1.785156 7.191406 C 2.015625 7.773438 3.324219 10.699219 6.4375 11.949219 C 6.457031 11.957031 6.484375 11.957031 6.503906 11.949219 C 9.628906 10.699219 10.925781 7.773438 11.15625 7.191406 C 11.167969 7.171875 11.167969 7.15625 11.167969 7.136719 L 11.167969 3.105469 C 11.167969 3.046875 11.136719 3 11.089844 2.980469 L 6.515625 1.042969 C 6.503906 1.03125 6.496094 1.03125 6.476562 1.03125 M 6.476562 12.980469 C 6.332031 12.980469 6.199219 12.953125 6.066406 12.90625 C 2.558594 11.5 1.097656 8.222656 0.839844 7.585938 C 0.785156 7.449219 0.753906 7.296875 0.753906 7.144531 L 0.753906 3.105469 C 0.753906 2.636719 1.03125 2.214844 1.453125 2.042969 L 6.046875 0.09375 C 6.324219 -0.0195312 6.628906 -0.0195312 6.90625 0.09375 L 11.5 2.035156 C 11.921875 2.207031 12.199219 2.625 12.199219 3.09375 L 12.199219 7.125 C 12.199219 7.269531 12.167969 7.421875 12.113281 7.566406 C 11.855469 8.214844 10.390625 11.492188 6.886719 12.886719 C 6.761719 12.953125 6.621094 12.980469 6.476562 12.980469 "/>
</g>
</svg>
