<?xml version="1.0" encoding="UTF-8"?>
<svg xmlns="http://www.w3.org/2000/svg" xmlns:xlink="http://www.w3.org/1999/xlink" width="38pt" height="38pt" viewBox="0 0 38 38" version="1.1">
<g id="surface1">
<path style=" stroke:none;fill-rule:nonzero;fill:rgb(0%,0%,0%);fill-opacity:1;" d="M 21.976562 22.984375 L 14.261719 27.429688 C 13.757812 27.765625 13.085938 27.515625 12.75 27.011719 L 8.640625 19.878906 C 8.304688 19.378906 8.554688 18.707031 9.058594 18.371094 L 16.777344 13.925781 Z M 21.976562 22.984375 "/>
<path style=" stroke:none;fill-rule:nonzero;fill:rgb(0%,0%,0%);fill-opacity:1;" d="M 18.371094 14.34375 L 22.3125 21.140625 L 29.613281 16.945312 L 25.667969 10.148438 Z M 18.371094 14.34375 "/>
<path style=" stroke:none;fill-rule:nonzero;fill:rgb(0%,0%,0%);fill-opacity:1;" d="M 19.042969 2.9375 L 18.957031 2.9375 L 5.453125 8.640625 C 5.285156 8.722656 5.199219 8.808594 5.199219 8.976562 L 5.199219 20.804688 C 5.199219 20.886719 5.199219 20.886719 5.199219 20.972656 C 5.871094 22.648438 9.648438 31.289062 18.875 34.894531 C 18.957031 34.894531 19.042969 34.894531 19.042969 34.894531 C 28.101562 31.207031 31.960938 22.648438 32.714844 20.972656 C 32.714844 20.886719 32.714844 20.886719 32.714844 20.804688 L 32.714844 8.976562 C 32.714844 8.808594 32.632812 8.640625 32.464844 8.640625 L 19.125 2.9375 C 19.125 2.9375 19.125 2.9375 19.042969 2.9375 M 19.042969 38 C 18.621094 38 18.203125 37.917969 17.867188 37.75 C 7.550781 33.636719 3.273438 23.992188 2.515625 22.144531 C 2.347656 21.726562 2.265625 21.308594 2.265625 20.886719 L 2.265625 9.058594 C 2.265625 7.71875 3.105469 6.460938 4.277344 5.957031 L 17.785156 0.25 C 18.621094 -0.0820312 19.460938 -0.0820312 20.300781 0.25 L 33.804688 5.871094 C 35.0625 6.375 35.820312 7.632812 35.820312 8.976562 L 35.820312 20.804688 C 35.820312 21.222656 35.734375 21.640625 35.566406 22.0625 C 34.8125 23.992188 30.535156 33.554688 20.300781 37.664062 C 19.878906 37.832031 19.460938 38 19.042969 38 "/>
</g>
</svg>
