<svg id="Ebene_1" data-name="Ebene 1" xmlns="http://www.w3.org/2000/svg" viewBox="0 0 500 500"><defs><style>.cls-1{fill:#090806;}</style></defs><title>Zeichenfläche 10</title><path class="cls-1" d="M250,0C111.93,0,0,111.93,0,250S111.93,500,250,500,500,388.07,500,250,388.07,0,250,0ZM220.94,79.89a23.42,23.42,0,0,1,23.35-23.35h11.42a23.42,23.42,0,0,1,23.35,23.35V193a23.42,23.42,0,0,1-23.35,23.35H244.29A23.42,23.42,0,0,1,220.94,193ZM250,435.4C147.77,435.4,64.6,352.23,64.6,250c0-75.62,45.51-140.79,110.57-169.61v81.92a115.36,115.36,0,1,0,149.66,0V80.39c65.06,28.82,110.57,94,110.57,169.61C435.4,352.23,352.23,435.4,250,435.4Z"/></svg>