<?xml version="1.0" encoding="utf-8"?>
<!-- Generator: Adobe Illustrator 22.0.1, SVG Export Plug-In . SVG Version: 6.00 Build 0)  -->
<svg version="1.1" id="Ebene_1" xmlns="http://www.w3.org/2000/svg" xmlns:xlink="http://www.w3.org/1999/xlink" x="0px" y="0px"
	 viewBox="0 0 500 500" style="enable-background:new 0 0 500 500;" xml:space="preserve">
<style type="text/css">
	.st0{fill:#C80636;}
</style>
<title>Zeichenfläche 10</title>
<path class="st0" d="M252.6,112.9c16.6,0,30.5-5.3,41.9-16s17-24.3,17-40.8c0-16.6-5.7-30.1-17-40.5S269.2,0,252.6,0
	c-16.1,0-30,5.2-41.6,15.6c-11.6,10.4-17.4,23.9-17.4,40.5c0,16.6,5.8,30.2,17.4,40.9C222.7,107.7,236.5,113,252.6,112.9z"/>
<path class="st0" d="M298.7,448.9c-0.4-16-0.7-33.2-0.6-51.6v-136l2-92.8l-9.8-6.4l-125.9,42.2v24.7l43.5,5.9
	c0.4,13,0.9,25.4,1.3,37.3c0.4,11.9,0.7,26.7,0.6,44.5V397c0,18.2-0.2,35.5-0.6,51.9l-39.6,7.8V500h166.2v-43.3L298.7,448.9z"/>
</svg>
