<svg id="Ebene_1" data-name="Ebene 1" xmlns="http://www.w3.org/2000/svg" viewBox="0 0 500 500"><defs><style>.cls-1{fill:#090806;}</style></defs><title>Zeichenfläche 10</title><path class="cls-1" d="M496.45,207.88A55.8,55.8,0,0,1,454,105.49a251.36,251.36,0,0,0-59.9-59.79A55.8,55.8,0,0,1,291.6,3.47a251.29,251.29,0,0,0-84,.13A55.8,55.8,0,0,1,105.86,45.72a251.6,251.6,0,0,0-59,58.59,55.8,55.8,0,0,1-43,101.84,251.89,251.89,0,0,0-.63,83.9A55.8,55.8,0,0,1,44.83,392.86a251.48,251.48,0,0,0,59.39,60.24,55.81,55.81,0,0,1,102.36,43.13A252,252,0,0,0,289,497a55.81,55.81,0,0,1,103-41.2,251.42,251.42,0,0,0,61.82-61,55.79,55.79,0,0,1,42.56-102.29,251.53,251.53,0,0,0,.07-84.63ZM250,333.82A83.82,83.82,0,1,1,333.82,250,83.82,83.82,0,0,1,250,333.82Z"/></svg>