<svg id="Ebene_1" data-name="Ebene 1" xmlns="http://www.w3.org/2000/svg" viewBox="0 0 500 500"><title>Zeichenfläche 10</title><path d="M118.1,242.83a14.19,14.19,0,0,0-5.52,19.86l54.09,94.93a14.18,14.18,0,0,0,19.86,5.51l101.55-59.6-68.43-119.2Z"/><polygon points="244.24 189.47 296.12 278.87 388.52 224.06 336.64 134.66 244.24 189.47"/><path d="M442.6,77.26,267.11,3.31c-11-4.41-23.18-4.41-33.11,0L57.4,78.37C40.84,85,30.91,101.55,30.91,119.21V275.94c0,6.62,2.2,12.14,3.31,16.55,11,23.18,66.22,150.11,199.78,204.2,6.62,2.21,11,3.31,16.55,3.31,4.42,0,9.94-2.21,15.45-5.52,133.56-54.08,189.85-178.81,199.78-205.3a44.21,44.21,0,0,0,3.31-16.55V118.1C469.09,99.34,459.16,83.89,442.6,77.26ZM427.15,273.73v2.21c-8.83,22.07-57.39,133.55-177.7,183.22h-2.21C129.14,410.6,78.37,299.12,69.54,277V120.31c0-2.21,2.2-3.31,3.31-4.42l177.7-75,173.29,74c2.21,0,3.31,2.21,3.31,4.42Z"/></svg>