<?xml version="1.0" encoding="utf-8"?>
<!-- Generator: Adobe Illustrator 22.0.1, SVG Export Plug-In . SVG Version: 6.00 Build 0)  -->
<svg version="1.1" id="Ebene_1" xmlns="http://www.w3.org/2000/svg" xmlns:xlink="http://www.w3.org/1999/xlink" x="0px" y="0px"
	 viewBox="0 0 500 500" style="enable-background:new 0 0 500 500;" xml:space="preserve">
<style type="text/css">
	.st0{fill:#C80636;}
</style>
<title>Zeichenfläche 10</title>
<path class="st0" d="M250,354.2c-6.3,0-11.2,1.8-14.8,5.3s-5.3,8.5-5.3,15s1.8,11.5,5.4,15.1s8.5,5.5,14.8,5.5
	c6.2,0,11.1-1.9,14.6-5.7s5.2-8.7,5.2-14.9s-1.7-11.1-5.2-14.8S256.3,354.2,250,354.2z"/>
<polygon class="st0" points="236.8,322.8 263.6,322.8 270.1,203.1 230.1,203.1 "/>
<path class="st0" d="M498.2,448.8L261.2,38.2c-3.6-6.2-11.5-8.3-17.6-4.7c-2,1.1-3.6,2.8-4.7,4.7L1.8,448.8
	c-3.6,6.2-1.5,14.1,4.7,17.6c2,1.1,4.2,1.7,6.5,1.7h474.1c7.1,0,12.9-5.8,12.9-12.9C500,453,499.4,450.8,498.2,448.8z M47.6,435.3
	L250,84.7l202.4,350.6H47.6z"/>
</svg>
