<?xml version="1.0" encoding="utf-8"?>
<!-- Generator: Adobe Illustrator 22.0.1, SVG Export Plug-In . SVG Version: 6.00 Build 0)  -->
<svg version="1.1" id="Ebene_1" xmlns="http://www.w3.org/2000/svg" xmlns:xlink="http://www.w3.org/1999/xlink" x="0px" y="0px"
	 viewBox="0 0 500 500" style="enable-background:new 0 0 500 500;" xml:space="preserve">
<style type="text/css">
	.st0{fill:#1D1D1B;}
	.st1{fill:#C80636;}
</style>
<title>Zeichenfläche 10</title>
<path class="st0" d="M120.4,297.8c-0.6,0.5-1.4,0.8-2.2,0.7c-0.8,0-1.6-0.2-2.3-0.8c-0.7-0.6-1.1-1.5-1.1-2.4h-1.6v0.1
	c-0.1,1.2,0.4,2.3,1.3,3.2c1,0.9,2.3,1.4,3.7,1.3c1.3,0.1,2.5-0.3,3.5-1.1c1.6-1.5,1.7-3.9,0.3-5.6c0,0-0.1-0.1-0.1-0.1
	c-1-0.9-2.2-1.5-3.4-2c-0.9-0.4-1.8-0.9-2.5-1.5c-0.9-1-0.8-2.4,0.2-3.3c0.6-0.5,1.4-0.8,2.2-0.7c0.8,0,1.7,0.3,2.2,0.9
	c0.5,0.6,0.8,1.4,0.8,2.2h1.6v-0.1c0.1-1.2-0.4-2.4-1.2-3.2c-0.9-0.9-2.2-1.4-3.4-1.3c-1.2-0.1-2.4,0.4-3.3,1.2
	c-0.8,0.7-1.3,1.7-1.3,2.8c0,1,0.4,1.9,1.1,2.6c1,0.9,2.2,1.5,3.4,2c0.9,0.4,1.8,0.9,2.5,1.6c0.5,0.5,0.7,1.1,0.7,1.8
	C121.3,296.8,121,297.4,120.4,297.8L120.4,297.8z M133.1,299.5c0.7-0.3,1.3-0.8,1.8-1.4l-0.7-1.2c-0.4,0.5-1,1-1.6,1.2
	c-0.7,0.3-1.4,0.5-2.2,0.5c-1.1,0-2.2-0.5-2.9-1.5c-0.7-1.1-1.1-2.4-1.1-3.7v-1.3h8.7v-1.7c0.1-1.6-0.4-3.3-1.3-4.6
	c-0.9-1.1-2.3-1.8-3.7-1.7c-1.5,0-2.9,0.7-3.8,1.9c-1.1,1.4-1.6,3.1-1.6,4.8v2.5c-0.1,1.7,0.5,3.4,1.6,4.7c1,1.2,2.5,1.9,4,1.9
	C131.4,300,132.3,299.8,133.1,299.5L133.1,299.5z M132.7,286.9c0.6,0.9,0.9,2,0.9,3.1v0.6h-7.1c0-1.3,0.4-2.5,1.1-3.6
	c0.6-0.9,1.6-1.5,2.6-1.5C131.2,285.6,132.2,286,132.7,286.9L132.7,286.9z M139.7,297.1c-0.6-1.2-1-2.5-0.9-3.8v-2.4
	c0-1.3,0.3-2.6,0.9-3.8c0.6-1,1.7-1.6,2.9-1.5c0.9,0,1.8,0.4,2.4,1.1c0.7,0.8,1,1.8,1,2.9h1.5v-0.1c0.1-1.4-0.4-2.8-1.4-3.9
	c-0.9-1-2.2-1.5-3.5-1.5c-1.6-0.1-3.1,0.6-4.1,1.9c-1,1.4-1.5,3.1-1.4,4.9v2.4c-0.1,1.7,0.4,3.4,1.4,4.9c1.8,2.2,5,2.5,7.2,0.7
	c0.1-0.1,0.2-0.2,0.3-0.3c1-0.9,1.5-2.2,1.4-3.5v-0.1h-1.5c0.1,1-0.3,2-1,2.7c-0.6,0.6-1.5,1-2.3,1
	C141.4,298.7,140.3,298.1,139.7,297.1L139.7,297.1z M158.3,299.7h1.5v-15.3h-1.7v11.1c-0.2,0.8-0.7,1.6-1.3,2.2
	c-0.7,0.5-1.5,0.8-2.4,0.8c-0.9,0-1.7-0.4-2.1-1.2c-0.6-1.2-0.8-2.6-0.7-4v-8.9h-1.7v8.9c-0.1,1.8,0.3,3.5,1.1,5.1
	c0.7,1.1,1.9,1.7,3.2,1.6c0.8,0,1.7-0.2,2.3-0.7c0.7-0.5,1.3-1.2,1.6-2L158.3,299.7L158.3,299.7z M169.2,284.3
	c-0.1,0-0.3-0.1-0.4-0.1c-0.2,0-0.4,0-0.5,0c-0.8,0-1.5,0.3-2.1,0.7c-0.6,0.6-1.1,1.3-1.4,2.1l-0.2-2.5H163v15.3h1.7v-10.9
	c0.2-0.8,0.6-1.6,1.1-2.2c0.5-0.5,1.3-0.8,2-0.8l1.1,0.1L169.2,284.3L169.2,284.3z M178.3,299.5c0.7-0.3,1.3-0.8,1.7-1.5l-0.7-1.2
	c-0.4,0.5-1,1-1.6,1.2c-0.7,0.3-1.4,0.5-2.2,0.5c-1.1,0-2.2-0.5-2.9-1.5c-0.7-1.1-1.1-2.4-1.1-3.7V292h8.8v-1.7
	c0.1-1.6-0.4-3.3-1.3-4.6c-0.9-1.1-2.3-1.8-3.7-1.7c-1.5,0-2.9,0.7-3.8,1.9c-1.1,1.4-1.6,3.1-1.6,4.8v2.5c-0.1,1.7,0.5,3.4,1.6,4.7
	c1,1.2,2.5,1.9,4,1.9C176.4,300,177.3,299.8,178.3,299.5L178.3,299.5z M177.9,286.9c0.6,0.9,0.9,2,0.9,3.1v0.6h-7.1
	c0-1.3,0.4-2.5,1.1-3.6c0.6-0.9,1.6-1.5,2.6-1.5C176.4,285.6,177.3,286,177.9,286.9L177.9,286.9z M188.9,284.4H187l4.8,15.1l-0.6,2
	c-0.2,0.7-0.5,1.4-0.9,2c-0.3,0.5-0.8,0.8-1.4,0.8h-0.5l-0.5-0.1l-0.2,1.5c0.2,0.1,0.4,0.1,0.6,0.1c0.2,0,0.4,0.1,0.6,0.1
	c0.9,0,1.8-0.4,2.3-1.1c0.6-0.8,1-1.7,1.3-2.6l5.4-17.8h-1.9l-3.7,12.6h-0.1l-0.4-1.5L188.9,284.4L188.9,284.4z M199,293.2
	c-0.1,1.8,0.5,3.5,1.5,4.9c1.9,2.3,5.3,2.5,7.6,0.6c0.2-0.2,0.4-0.4,0.6-0.6c1.1-1.4,1.6-3.2,1.5-4.9v-2.2c0.1-1.8-0.5-3.5-1.5-4.9
	c-1.9-2.3-5.3-2.6-7.5-0.7c-0.2,0.2-0.5,0.4-0.7,0.7c-1.1,1.4-1.6,3.1-1.5,4.9V293.2z M200.7,290.9c-0.1-1.3,0.3-2.7,1-3.8
	c1.1-1.6,3.3-2,4.9-0.9c0.4,0.3,0.7,0.6,0.9,0.9c0.7,1.1,1.1,2.5,1,3.8v2.2c0.1,1.3-0.3,2.7-1,3.8c-1.1,1.6-3.3,2-4.9,0.9
	c-0.4-0.2-0.7-0.6-0.9-0.9c-0.7-1.1-1.1-2.5-1-3.8V290.9L200.7,290.9z M221.2,299.7h1.5v-15.3H221v11.1c-0.2,0.8-0.7,1.6-1.3,2.2
	c-0.7,0.5-1.5,0.8-2.4,0.8c-0.9,0-1.7-0.4-2.1-1.2c-0.6-1.2-0.8-2.6-0.7-4v-8.9h-1.7v8.9c-0.1,1.8,0.3,3.5,1.1,5.1
	c0.7,1.1,1.9,1.7,3.2,1.6c0.8,0,1.7-0.2,2.4-0.7c0.7-0.5,1.3-1.2,1.6-2L221.2,299.7L221.2,299.7z M232.1,284.3
	c-0.1,0-0.3-0.1-0.4-0.1c-0.2,0-0.4,0-0.5,0c-0.8,0-1.5,0.3-2.1,0.7c-0.6,0.6-1.1,1.3-1.4,2.1l-0.2-2.5H226v15.3h1.7v-10.9
	c0.2-0.8,0.6-1.6,1.1-2.2c0.5-0.5,1.3-0.8,2-0.8l1.1,0.1L232.1,284.3L232.1,284.3z M238.9,292.5c-0.1,1.9,0.4,3.8,1.3,5.5
	c0.7,1.3,2.1,2,3.6,2c0.8,0,1.6-0.2,2.2-0.6c0.7-0.4,1.2-1,1.6-1.7l0.1,2h1.5v-22h-1.7v8.8c-0.4-0.7-0.9-1.3-1.6-1.7
	c-0.7-0.4-1.4-0.6-2.2-0.6c-1.5,0-2.9,0.8-3.6,2.2c-0.9,1.8-1.4,3.8-1.3,5.9V292.5L238.9,292.5z M240.6,292.2
	c-0.1-1.6,0.2-3.2,0.9-4.7c0.4-1.1,1.5-1.8,2.7-1.8c0.8,0,1.5,0.2,2.1,0.8c0.6,0.6,1,1.2,1.3,2v7.5c-0.3,0.7-0.7,1.4-1.3,1.9
	c-0.6,0.5-1.3,0.7-2.1,0.7c-1.1,0-2.2-0.6-2.6-1.6c-0.6-1.4-0.9-2.9-0.9-4.4L240.6,292.2L240.6,292.2z M254.4,284.4h-1.7v15.3h1.7
	V284.4z M254.4,277.6h-1.7v2.4h1.7V277.6L254.4,277.6z M257.3,293.4c-0.1,1.7,0.4,3.4,1.3,4.8c1.4,1.8,3.8,2.3,5.8,1.2
	c0.7-0.4,1.2-0.9,1.6-1.6v1.9c0.1,1.2-0.2,2.4-0.9,3.4c-0.6,0.8-1.7,1.3-2.7,1.2c-0.6,0-1.2-0.1-1.8-0.2c-0.5-0.2-1.1-0.4-1.5-0.7
	l-0.5,1.5c0.6,0.3,1.2,0.6,1.8,0.7c0.6,0.2,1.3,0.3,2,0.3c1.5,0.1,2.9-0.5,3.9-1.6c1-1.3,1.5-2.9,1.4-4.5v-15.3h-1.4l-0.2,2.1
	c-0.4-0.7-0.9-1.3-1.6-1.8c-0.7-0.4-1.5-0.6-2.2-0.6c-1.5,0-2.9,0.7-3.6,2c-0.9,1.6-1.4,3.4-1.3,5.2L257.3,293.4L257.3,293.4z
	 M259,291.3c-0.1-1.4,0.2-2.8,0.9-4.1c0.5-1,1.6-1.6,2.7-1.6c0.8,0,1.5,0.2,2.1,0.8c0.6,0.6,1,1.2,1.3,2v7.6
	c-0.3,0.7-0.7,1.4-1.4,1.9c-0.6,0.5-1.3,0.7-2.1,0.7c-1.1,0.1-2.1-0.5-2.7-1.4c-0.6-1.1-1-2.4-0.9-3.7L259,291.3L259,291.3z
	 M272.9,284.4h-1.7v15.3h1.7V284.4z M272.9,277.6h-1.7v2.4h1.7V277.6L272.9,277.6z M277.1,280.5v3.9H275v1.5h2.1v9.9
	c-0.1,1.1,0.2,2.3,0.8,3.2c0.5,0.7,1.3,1,2.1,1c0.4,0,0.7,0,1.1-0.1c0.3-0.1,0.6-0.1,0.9-0.3l-0.2-1.3c-0.3,0-0.5,0.1-0.7,0.1
	c-0.2,0-0.4,0-0.7,0c-0.5,0-0.9-0.2-1.1-0.6c-0.3-0.6-0.5-1.4-0.4-2.1v-9.9h2.7v-1.5h-2.7v-3.9L277.1,280.5z M293.8,299.7
	c-0.1-0.5-0.2-1-0.2-1.5c0-0.5-0.1-1-0.1-1.6v-7.5c0.1-1.4-0.4-2.7-1.3-3.7c-0.9-0.9-2.2-1.3-3.4-1.3c-1.3,0-2.6,0.4-3.5,1.4
	c-0.9,0.8-1.3,1.9-1.3,3.1v0.1h1.6c0-0.8,0.3-1.6,0.9-2.1c0.6-0.6,1.4-0.9,2.2-0.9c0.9-0.1,1.7,0.3,2.3,0.9c0.6,0.7,0.9,1.6,0.8,2.5
	v1.9h-2.7c-1.5-0.1-2.9,0.4-4.1,1.3c-1,0.8-1.6,2.1-1.5,3.4c-0.1,1.1,0.3,2.3,1,3.2c0.7,0.8,1.8,1.2,2.9,1.2c0.9,0,1.7-0.3,2.5-0.7
	c0.7-0.5,1.3-1.1,1.8-1.9c0,0.3,0,0.7,0.1,1c0,0.3,0.1,0.8,0.2,1.3L293.8,299.7z M285.9,297.7c-0.5-0.6-0.7-1.3-0.6-2
	c0-0.9,0.3-1.8,1-2.4c0.8-0.7,1.8-1,2.8-1h2.7v3.3c-0.3,0.8-0.8,1.6-1.5,2.1c-0.7,0.5-1.6,0.8-2.5,0.8
	C287,298.5,286.3,298.2,285.9,297.7L285.9,297.7z M298.6,277.6h-1.7v22.1h1.7V277.6L298.6,277.6z M309.5,277.6h-1.7v22.1h1.7V277.6
	L309.5,277.6z M314.8,284.4h-1.7v15.3h1.7V284.4z M314.8,277.6h-1.7v2.4h1.7V277.6L314.8,277.6z M321,299.7v-13.9h2.9v-1.5H321v-2.2
	c-0.1-0.9,0.1-1.7,0.6-2.5c0.4-0.6,1-0.9,1.7-0.9c0.2,0,0.4,0,0.6,0c0.2,0,0.4,0.1,0.6,0.1l0.2-1.4c-0.3-0.1-0.5-0.1-0.8-0.2
	c-0.3,0-0.5-0.1-0.8-0.1c-1.1-0.1-2.1,0.4-2.8,1.3c-0.7,1-1.1,2.3-1,3.6v2.2h-2.1v1.5h2.1v13.9L321,299.7z M333.2,299.4
	c0.7-0.3,1.3-0.8,1.8-1.4l-0.7-1.2c-0.4,0.5-1,1-1.6,1.2c-0.7,0.3-1.4,0.5-2.2,0.5c-1.1,0-2.2-0.5-2.9-1.5c-0.7-1.1-1.1-2.4-1.1-3.7
	V292h8.8v-1.7c0.1-1.6-0.4-3.3-1.3-4.6c-0.9-1.1-2.3-1.8-3.7-1.7c-1.5,0-2.9,0.7-3.8,1.9c-1.1,1.4-1.6,3.1-1.6,4.8v2.5
	c-0.1,1.7,0.5,3.4,1.6,4.7c1,1.2,2.5,1.9,4,1.9C331.4,300,332.3,299.8,333.2,299.4L333.2,299.4z M332.8,286.8c0.6,0.9,0.9,2,0.9,3.1
	v0.6h-7.1c0-1.3,0.4-2.5,1.1-3.6c0.6-0.9,1.6-1.5,2.6-1.5C331.3,285.6,332.3,286,332.8,286.8L332.8,286.8z"/>
<path class="st0" d="M173.5,223.6v-10.1h-14.8v10.1H173.5z M173.2,227.8h-14.3v41.9h14.3L173.2,227.8L173.2,227.8z M221.7,227.8h-14
	v41.9H222v-29.9h5.3h4.8v-12h-1.3L221.7,227.8L221.7,227.8z M238.2,230.5c-1.9,1.8-2.8,4.4-2.8,7.7v21.1c0,3.3,0.9,5.9,2.8,7.7
	c1.9,1.8,4.9,2.7,9.2,2.7H258c4.2,0,7.3-0.9,9.2-2.7s2.8-4.4,2.8-7.7v-21.1c0-3.4-0.9-5.9-2.8-7.7s-4.9-2.7-9.2-2.7h-10.7
	C243.1,227.8,240,228.7,238.2,230.5L238.2,230.5z M253.8,259.8h-2.3c-1.4,0-2.1-0.6-2.1-1.9v-18.4c0-1.2,0.7-1.9,2.1-1.9h2.3
	c1.4,0,2.1,0.6,2.1,1.9V258C255.9,259.2,255.2,259.9,253.8,259.8L253.8,259.8z"/>
<polygon class="st0" points="138.8,243.5 126.6,213.5 113.8,213.5 113.8,269.7 127.4,269.7 127.4,240.2 139.6,269.7 152.4,269.7 
	152.4,213.5 138.8,213.5 138.8,243.5 "/>
<path class="st0" d="M361.7,291.8h13l18.1-64h-14.4l-4.5,25.6l-5.7-25.6h-14.4l13.3,43.4"/>
<path class="st0" d="M317,238.2v21.1c0,7,4.1,10.4,12.4,10.4h10.2c8.2,0,12.4-3.5,12.4-10.4v-3.8h-13.5v2.4c0,1.4,0,2,0,2h-5.8
	c-1.4,0-2.1-0.6-2.1-1.9v-5.5H352v-14.3c0-6.9-4.1-10.4-12.4-10.4h-10.3C321.1,227.8,317,231.3,317,238.2z M330.5,239.5
	c0-1.2,0.7-1.9,2.1-1.9h3.7c1.4,0,2.1,0.6,2.1,1.9v5.3h-7.9L330.5,239.5L330.5,239.5z"/>
<path class="st0" d="M201.4,227.9h-5.3v-14.2h-14.3v14.2h-4.6v10.5h4.6v31.4h19.5v-10.5h-5.2v-20.9h5.3V227.9z"/>
<polygon class="st0" points="290.5,250.2 298.3,269.7 313.2,269.7 304.2,248.5 313.2,227.8 298.4,227.8 290.5,246.9 290.5,213.5 
	276.2,213.5 276.2,269.7 290.5,269.7 290.5,250.2 "/>
<path class="st1" d="M58.2,260.6l-23.1,13.3c-1.6,0.9-3.6,0.4-4.5-1.2l-12.3-21.4c-0.9-1.6-0.4-3.6,1.2-4.5l23.1-13.3L58.2,260.6z"
	/>
<path class="st1" d="M46.2,235.9l11.7,20.2l23.1-13.4l-11.7-20.2L46.2,235.9z M57.8,233.4c-0.2-0.4-0.1-0.9,0.3-1.1l2.3-1.4
	c0.4-0.2,0.9-0.1,1.1,0.3l1.9,3.3c0.2,0.4,0.1,0.9-0.3,1.1l-2.3,1.3c-0.4,0.2-0.8,0.1-1.1-0.3c0,0,0,0,0,0L57.8,233.4L57.8,233.4z
	 M69.2,246.2l-2.3,1.3c-0.4,0.2-0.9,0.1-1.1-0.3l-1.9-3.3c-0.2-0.4-0.1-0.8,0.3-1.1c0,0,0,0,0,0l2.3-1.3c0.4-0.2,0.8-0.1,1.1,0.3
	c0,0,0,0,0,0l1.9,3.3C69.7,245.6,69.6,246.1,69.2,246.2L69.2,246.2z"/>
<path class="st1" d="M49.6,304.7c-1.2,0-2.5-0.2-3.6-0.7c-30.4-12.1-43-40.5-45.3-46.1c-0.5-1.2-0.7-2.5-0.7-3.8v-35
	c0-4,2.3-7.6,6-9.2L45.8,193c2.4-1,5.1-1,7.5,0l39.8,16.8c3.7,1.6,6,5.2,6,9.2v35c0,1.3-0.3,2.6-0.7,3.8c-2.2,5.6-14.9,34-45.3,46.2
	C52,304.5,50.7,304.7,49.6,304.7L49.6,304.7z M49.6,201.1c-0.1,0-0.2,0-0.3,0.1L9.5,218c-0.4,0.2-0.7,0.6-0.6,1.1v35
	c0,0.2,0,0.3,0.1,0.5c2,5,13.3,30.4,40.4,41.3c0.2,0.1,0.4,0.1,0.6,0C77,285,88.3,259.6,90.2,254.6c0.1-0.2,0.1-0.3,0.1-0.5v-35
	c0-0.5-0.2-0.9-0.6-1.1l-39.8-16.8C49.8,201.2,49.7,201.1,49.6,201.1z"/>
<path class="st1" d="M415.2,291.9h10.9l-15.6-55.5h-11.3l-15.6,55.5h10.9l3-11.8h14.6L415.2,291.9L415.2,291.9z M404.8,251.7h0.2
	l5,19.6h-10.2L404.8,251.7L404.8,251.7z M462.1,269.3c0-5.8-1.2-10.5-3.6-14.1c-2.2-3.5-6-5.5-10.1-5.4c-1.7,0-3.3,0.4-4.7,1.3
	c-1.4,0.9-2.6,2.1-3.5,3.6l-0.4-4.1h-10v57.1h10.8v-19.1c0.9,1.3,2.1,2.3,3.4,3c1.4,0.7,2.9,1,4.5,1c4,0.2,7.7-1.7,10-5
	c2.4-3.3,3.6-7.7,3.6-13.2L462.1,269.3L462.1,269.3z M451.3,274.4c0.1,2.4-0.3,4.8-1.3,7.1c-0.8,1.7-2.5,2.7-4.3,2.6
	c-1,0-2.1-0.2-3-0.7c-0.8-0.5-1.5-1.2-2-2.1v-19.5c0.4-1,1.1-1.8,2-2.4c0.9-0.6,1.9-0.9,3-0.9c1.9,0,3.7,1.2,4.3,3
	c1,2.5,1.5,5.2,1.4,7.8L451.3,274.4L451.3,274.4z M500,269.3c0-5.8-1.2-10.5-3.6-14.1c-2.2-3.5-6-5.5-10.1-5.4
	c-1.7,0-3.3,0.4-4.7,1.3c-1.4,0.9-2.6,2.1-3.5,3.6l-0.4-4.1h-10v57.1h10.8v-19.1c0.9,1.3,2.1,2.3,3.4,3c1.4,0.7,2.9,1,4.5,1
	c4,0.2,7.7-1.7,10-5c2.4-3.3,3.6-7.7,3.6-13.2V269.3L500,269.3z M489.2,274.4c0.1,2.4-0.3,4.8-1.3,7.1c-0.8,1.7-2.5,2.7-4.3,2.6
	c-1,0-2.1-0.2-3-0.7c-0.8-0.5-1.5-1.2-2-2.1v-19.5c0.4-1,1.1-1.8,2-2.4c0.9-0.6,1.9-0.9,3-0.9c1.9,0,3.7,1.2,4.3,3
	c1,2.5,1.5,5.2,1.4,7.8L489.2,274.4L489.2,274.4z"/>
</svg>
