<?xml version="1.0" encoding="utf-8"?>
<!-- Generator: Adobe Illustrator 22.0.1, SVG Export Plug-In . SVG Version: 6.00 Build 0)  -->
<svg version="1.1" id="Ebene_1" xmlns="http://www.w3.org/2000/svg" xmlns:xlink="http://www.w3.org/1999/xlink" x="0px" y="0px"
	 viewBox="0 0 500 500" style="enable-background:new 0 0 500 500;" xml:space="preserve">
<g>
	<path d="M96.3,269.3c107.1,0.4,214.2,0.4,321.3,0c24.3-0.1,46.7,4.1,67.4,20.7c-0.4-3.2-0.5-4.6-0.7-6
		c-9.4-71.5-18.5-128.6-28.4-200.1c-5.8-42-37.5-70.9-78.9-71.2c-84.6-0.6-169.1-0.6-253.7,0C81.1,13,48.7,43.9,43.3,85.6
		c-7.1,56-14.9,97.4-22.4,153.2c-2.2,16.7-4.4,33.4-6.9,52.2C39,269.5,67.4,269.2,96.3,269.3z"/>
	<path d="M423.2,320.6c-57.7,0-115.3,0-173,0c-58.9,0-117.8-0.1-176.7,0c-34.6,0.1-65.1,22.6-71.2,55.9c-3.2,18.4-3.1,41.2,0.3,59.5
		c6.4,34,36.8,55.6,73.6,55.6c89.7,0.1,179.3,0.1,269,0c26.9,0,53.8,0.2,80.7-0.1c35.2-0.4,64.6-23,71.9-56.4
		c2.4-11,2.2-26.6,2.2-37.9C500.1,351.8,468.7,320.6,423.2,320.6z M399.6,448c-22.7-0.4-40.2-18.8-40.1-42.1c0.1-22.1,18.4-40,41-40
		c22.6,0,40.6,18.3,40.8,41.4C441.6,429.1,421.8,448.4,399.6,448z"/>
</g>
</svg>
