<?xml version="1.0" encoding="UTF-8" standalone="no"?>
<!-- Generator: Adobe Illustrator 22.0.1, SVG Export Plug-In . SVG Version: 6.00 Build 0)  -->

<svg
   xmlns:dc="http://purl.org/dc/elements/1.1/"
   xmlns:cc="http://creativecommons.org/ns#"
   xmlns:rdf="http://www.w3.org/1999/02/22-rdf-syntax-ns#"
   xmlns:svg="http://www.w3.org/2000/svg"
   xmlns="http://www.w3.org/2000/svg"
   xmlns:sodipodi="http://sodipodi.sourceforge.net/DTD/sodipodi-0.dtd"
   xmlns:inkscape="http://www.inkscape.org/namespaces/inkscape"
   version="1.1"
   id="Ebene_1"
   x="0px"
   y="0px"
   viewBox="0 0 500 500"
   style="enable-background:new 0 0 500 500;"
   xml:space="preserve"
   sodipodi:docname="icon_unsafe.svg"
   inkscape:version="0.92.3 (2405546, 2018-03-11)"><metadata
   id="metadata3775"><rdf:RDF><cc:Work
       rdf:about=""><dc:format>image/svg+xml</dc:format><dc:type
         rdf:resource="http://purl.org/dc/dcmitype/StillImage" /></cc:Work></rdf:RDF></metadata><defs
   id="defs3773">
	
	
</defs><sodipodi:namedview
   pagecolor="#ffffff"
   bordercolor="#666666"
   borderopacity="1"
   objecttolerance="10"
   gridtolerance="10"
   guidetolerance="10"
   inkscape:pageopacity="0"
   inkscape:pageshadow="2"
   inkscape:window-width="1920"
   inkscape:window-height="1025"
   id="namedview3771"
   showgrid="false"
   inkscape:snap-grids="true"
   inkscape:zoom="1.2162237"
   inkscape:cx="100.56894"
   inkscape:cy="215.32166"
   inkscape:window-x="0"
   inkscape:window-y="27"
   inkscape:window-maximized="1"
   inkscape:current-layer="Ebene_1" />
<g
   id="g3820"><path
     id="path3764"
     d="m 395.51084,101.4 c -0.3,-44.8 -39.4,-86.9 -86,-86.1 -19.6,0.3 -39.1,0.1 -58.7,0 -19,0 -37.9,0.5 -56.9,-0.1 -49.8,-1.5 -90.7,41.3 -89.6,90.4 0.4,20.2 0,30 0.2,50.2 0.5,45.4 -7.099999,41.5 44.5,41.9 14.2,0.1 19.7,-5.3 19.4,-19.5 -0.6,-28.7 0.1,-47.1 -0.2,-75.8 -0.1,-14.9 6.3,-23.3 21.5,-23.4 40.3,-0.2 80.7,-0.1 121,0.1 14,0.1 21.1,7.7 21,22 -0.1,21.4 -0.1,32.4 0.2,53.8 0.6,46.7 -8.3,42.2 45.3,42.7 13.3,0.1 18.7,-5.2 18.5,-18.5 -0.5,-29.4 0,-48.4 -0.2,-77.7 z"
     inkscape:connector-curvature="0" /><path
     id="path3766"
     d="M 405.90267,217.8 H 93.902672 c -14.1,0 -25.5,11.4 -25.5,25.5 v 216 c 0,14.1 11.4,25.6 25.6,25.6 H 406.00267 c 14.1,0 25.6,-11.4 25.6,-25.6 v -216 c -0.1,-14.1 -11.5,-25.5 -25.7,-25.5 z"
     inkscape:connector-curvature="0" /></g>
</svg>