<svg id="Ebene_1" data-name="Ebene 1" xmlns="http://www.w3.org/2000/svg" viewBox="0 0 500 500"><title>Zeichenfläche 10</title><path d="M136.36,214.52A385.34,385.34,0,0,0,84,235.81q4.42-33,5.1-55H57q.23,15.08,4.44,55.21-16-9.09-51.22-21.51L0,246q25.73,6.87,54.32,12.42-11.08,10.2-36.8,41.9l26.16,18.85q12.42-16.41,28.83-47.67Q90,301.66,102.88,319.18l26.61-18.85q-24.62-30.15-38.14-41.9A275.8,275.8,0,0,0,146.56,246Z"/><path d="M313.08,214.52a386,386,0,0,0-52.33,21.29q4.44-33,5.1-55H233.7q.23,15.08,4.44,55.21-16-9.09-51.22-21.51L176.72,246q25.71,6.87,54.32,12.42-11.08,10.2-36.8,41.9l26.16,18.85q12.42-16.41,28.82-47.67,17.52,30.15,30.38,47.67l26.61-18.85q-24.61-30.15-38.14-41.9A276,276,0,0,0,323.28,246Z"/><path d="M444.79,258.43A276,276,0,0,0,500,246l-10.2-31.49a386,386,0,0,0-52.33,21.29q4.44-33,5.1-55H410.42q.22,15.08,4.44,55.21-16-9.09-51.22-21.51L353.44,246q25.71,6.87,54.32,12.42-11.08,10.2-36.81,41.9l26.17,18.85q12.4-16.41,28.82-47.67,17.52,30.15,30.38,47.67l26.61-18.85Q458.31,270.18,444.79,258.43Z"/></svg>