<?xml version="1.0" encoding="utf-8"?>
<!-- Generator: Adobe Illustrator 22.0.1, SVG Export Plug-In . SVG Version: 6.00 Build 0)  -->
<svg version="1.1" id="Ebene_1" xmlns="http://www.w3.org/2000/svg" xmlns:xlink="http://www.w3.org/1999/xlink" x="0px" y="0px"
	 viewBox="0 0 500 500" style="enable-background:new 0 0 500 500;" xml:space="preserve">
<g>
	<path d="M499.8,101.4c-0.3-44.8-39.4-86.9-86-86.1c-19.6,0.3-39.1,0.1-58.7,0c-19,0-37.9,0.5-56.9-0.1
		c-49.8-1.5-90.7,41.3-89.6,90.4c0.4,20.2,0,30,0.2,50.2c0.5,45.4-7.1,41.5,44.5,41.9c14.2,0.1,19.7-5.3,19.4-19.5
		c-0.6-28.7,0.1-47.1-0.2-75.8c-0.1-14.9,6.3-23.3,21.5-23.4c40.3-0.2,80.7-0.1,121,0.1c14,0.1,21.1,7.7,21,22
		c-0.1,21.4-0.1,32.4,0.2,53.8c0.6,46.7-8.3,42.2,45.3,42.7c13.3,0.1,18.7-5.2,18.5-18.5C499.5,149.7,500,130.7,499.8,101.4z"/>
	<path d="M337.5,217.8h-312C11.4,217.8,0,229.2,0,243.3v216c0,14.1,11.4,25.6,25.6,25.6h312c14.1,0,25.6-11.4,25.6-25.6v-216
		C363.1,229.2,351.7,217.8,337.5,217.8z"/>
</g>
</svg>
