<?xml version="1.0" encoding="UTF-8"?>
<svg xmlns="http://www.w3.org/2000/svg" xmlns:xlink="http://www.w3.org/1999/xlink" width="19pt" height="19pt" viewBox="0 0 19 19" version="1.1">
<g id="surface1">
<path style=" stroke:none;fill-rule:nonzero;fill:rgb(87.45098%,87.45098%,88.235294%);fill-opacity:1;" d="M 10.917969 11.53125 L 7.035156 13.777344 C 6.769531 13.933594 6.4375 13.835938 6.28125 13.570312 L 4.203125 9.980469 C 4.046875 9.714844 4.144531 9.382812 4.410156 9.226562 L 8.292969 6.980469 Z M 10.917969 11.53125 "/>
<path style=" stroke:none;fill-rule:nonzero;fill:rgb(87.45098%,87.45098%,88.235294%);fill-opacity:1;" d="M 12.773438 9.117188 L 12.382812 9.339844 C 12.3125 9.382812 12.242188 9.351562 12.203125 9.296875 L 11.878906 8.738281 C 11.839844 8.667969 11.867188 8.597656 11.921875 8.558594 L 12.3125 8.335938 C 12.382812 8.292969 12.453125 8.320312 12.496094 8.375 L 12.816406 8.933594 C 12.859375 8.992188 12.84375 9.074219 12.773438 9.117188 M 10.847656 6.953125 C 10.804688 6.882812 10.832031 6.8125 10.890625 6.769531 L 11.28125 6.546875 C 11.351562 6.503906 11.417969 6.535156 11.460938 6.589844 L 11.78125 7.148438 C 11.824219 7.21875 11.796875 7.289062 11.742188 7.328125 L 11.351562 7.550781 C 11.28125 7.59375 11.210938 7.566406 11.167969 7.511719 Z M 8.90625 7.355469 L 10.875 10.761719 L 14.769531 8.515625 L 12.800781 5.109375 Z M 8.90625 7.355469 "/>
<path style=" stroke:none;fill-rule:nonzero;fill:rgb(87.45098%,87.45098%,88.235294%);fill-opacity:1;" d="M 9.464844 1.507812 C 9.449219 1.507812 9.4375 1.507812 9.410156 1.523438 L 2.707031 4.355469 C 2.636719 4.382812 2.597656 4.453125 2.597656 4.535156 L 2.597656 10.429688 C 2.597656 10.457031 2.597656 10.484375 2.609375 10.511719 C 2.945312 11.363281 4.859375 15.636719 9.410156 17.464844 C 9.4375 17.476562 9.480469 17.476562 9.507812 17.464844 C 14.070312 15.636719 15.96875 11.363281 16.304688 10.511719 C 16.320312 10.484375 16.320312 10.457031 16.320312 10.429688 L 16.320312 4.535156 C 16.320312 4.453125 16.277344 4.382812 16.207031 4.355469 L 9.519531 1.523438 C 9.507812 1.507812 9.492188 1.507812 9.464844 1.507812 M 9.464844 18.972656 C 9.253906 18.972656 9.058594 18.929688 8.863281 18.859375 C 3.742188 16.808594 1.605469 12.019531 1.226562 11.085938 C 1.144531 10.890625 1.101562 10.664062 1.101562 10.441406 L 1.101562 4.535156 C 1.101562 3.851562 1.507812 3.238281 2.121094 2.988281 L 8.835938 0.140625 C 9.242188 -0.0273438 9.6875 -0.0273438 10.09375 0.140625 L 16.808594 2.972656 C 17.421875 3.226562 17.828125 3.839844 17.828125 4.523438 L 17.828125 10.414062 C 17.828125 10.625 17.785156 10.847656 17.703125 11.054688 C 17.324219 12.007812 15.1875 16.792969 10.066406 18.832031 C 9.882812 18.929688 9.675781 18.972656 9.464844 18.972656 "/>
</g>
</svg>
