<?xml version="1.0" encoding="UTF-8" standalone="no"?>
<!-- Generator: Adobe Illustrator 18.1.0, SVG Export Plug-In . SVG Version: 6.00 Build 0)  -->

<svg
   xmlns:dc="http://purl.org/dc/elements/1.1/"
   xmlns:cc="http://creativecommons.org/ns#"
   xmlns:rdf="http://www.w3.org/1999/02/22-rdf-syntax-ns#"
   xmlns:svg="http://www.w3.org/2000/svg"
   xmlns="http://www.w3.org/2000/svg"
   xmlns:sodipodi="http://sodipodi.sourceforge.net/DTD/sodipodi-0.dtd"
   xmlns:inkscape="http://www.inkscape.org/namespaces/inkscape"
   version="1.1"
   id="Ebene_1"
   x="0px"
   y="0px"
   viewBox="0 0 136.1 136.1"
   enable-background="new 0 0 136.1 136.1"
   xml:space="preserve"
   sodipodi:docname="nitrokey-app.svg"
   inkscape:version="0.92.1 r15371"
   inkscape:export-filename="H:\upload_storage\nitrokey-app.png"
   inkscape:export-xdpi="722.28998"
   inkscape:export-ydpi="722.28998"><metadata
   id="metadata33"><rdf:RDF><cc:Work
       rdf:about=""><dc:format>image/svg+xml</dc:format><dc:type
         rdf:resource="http://purl.org/dc/dcmitype/StillImage" /></cc:Work></rdf:RDF></metadata><defs
   id="defs31" /><sodipodi:namedview
   pagecolor="#ffffff"
   bordercolor="#666666"
   borderopacity="1"
   objecttolerance="10"
   gridtolerance="10"
   guidetolerance="10"
   inkscape:pageopacity="0"
   inkscape:pageshadow="2"
   inkscape:window-width="913"
   inkscape:window-height="1041"
   id="namedview29"
   showgrid="false"
   inkscape:zoom="1.734019"
   inkscape:cx="68.050003"
   inkscape:cy="91.117801"
   inkscape:window-x="929"
   inkscape:window-y="0"
   inkscape:window-maximized="0"
   inkscape:current-layer="Ebene_1" />
<g
   id="g26">
	<path
   fill="#DFDFE1"
   d="M78.2,82.6L50.4,98.7c-1.9,1.1-4.3,0.4-5.4-1.5L30.1,71.5c-1.1-1.9-0.4-4.3,1.5-5.4L59.4,50L78.2,82.6z"
   id="path20" />
	<path
   fill="#DFDFE1"
   d="M91.5,65.3l-2.8,1.6c-0.5,0.3-1,0.1-1.3-0.3l-2.3-4c-0.3-0.5-0.1-1,0.3-1.3l2.8-1.6c0.5-0.3,1-0.1,1.3,0.3   l2.3,4C92.1,64.4,92,65,91.5,65.3 M77.7,49.8c-0.3-0.5-0.1-1,0.3-1.3l2.8-1.6c0.5-0.3,1-0.1,1.3,0.3l2.3,4c0.3,0.5,0.1,1-0.3,1.3   l-2.8,1.6c-0.5,0.3-1,0.1-1.3-0.3L77.7,49.8z M63.8,52.7l14.1,24.4l27.9-16.1L91.7,36.6L63.8,52.7z"
   id="path22" />
	<path
   fill="#DFDFE1"
   d="M67.8,10.8c-0.1,0-0.2,0-0.4,0.1L19.4,31.2c-0.5,0.2-0.8,0.7-0.8,1.3v42.2c0,0.2,0,0.4,0.1,0.6   c2.4,6.1,16.1,36.7,48.7,49.8c0.2,0.1,0.5,0.1,0.7,0c32.7-13.1,46.3-43.7,48.7-49.8c0.1-0.2,0.1-0.4,0.1-0.6V32.5   c0-0.6-0.3-1.1-0.8-1.3L68.2,10.9C68.1,10.8,68,10.8,67.8,10.8 M67.8,135.9c-1.5,0-2.9-0.3-4.3-0.8c-36.7-14.7-52-49-54.7-55.7   c-0.6-1.4-0.9-3-0.9-4.6V32.5c0-4.9,2.9-9.3,7.3-11.1L63.3,1c2.9-1.2,6.1-1.2,9,0l48.1,20.3c4.4,1.8,7.3,6.2,7.3,11.1v42.2   c0,1.5-0.3,3.1-0.9,4.6c-2.7,6.8-18,41.1-54.7,55.7C70.8,135.6,69.3,135.9,67.8,135.9"
   id="path24" />
</g>
<path
   style="fill:#c91735;fill-opacity:1;stroke-width:0.57669497"
   d="M 46.202657,98.239983 C 44.934134,97.288196 29.64212,70.743339 29.64212,69.493144 c 0,-0.533141 0.454147,-1.507519 1.009216,-2.165285 1.180414,-1.39881 27.838105,-16.901307 28.616741,-16.641761 0.289924,0.09664 4.624227,7.288112 9.631784,15.981046 8.106706,14.072944 8.998413,15.878007 8.135425,16.468364 -4.31402,2.95115 -27.564267,15.825344 -28.579897,15.825344 -0.710585,0 -1.724315,-0.324391 -2.252732,-0.720869 z"
   id="path35"
   inkscape:connector-curvature="0" /><path
   style="fill:#c91735;fill-opacity:1;stroke-width:0.57669497"
   d="M 70.932259,64.885917 C 67.253616,58.514809 64.244291,53.12992 64.24487,52.919497 c 8.84e-4,-0.321068 8.706811,-5.473338 24.226733,-14.337663 l 3.229372,-1.844482 6.744091,11.701655 c 3.709254,6.43591 6.744094,11.953601 6.744094,12.261535 0,0.603051 -25.917643,15.769207 -26.948204,15.769207 -0.34114,0 -3.630054,-5.212725 -7.308697,-11.583832 z m 19.407004,1.236424 c 0.872251,-0.437213 1.585911,-1.023127 1.585911,-1.302033 0,-1.247408 -2.416304,-5.074712 -3.203833,-5.074712 -1.197931,0 -3.716507,1.712874 -3.716507,2.527582 0,0.925674 2.883702,5.080368 3.359572,4.840306 0.21392,-0.107916 1.102605,-0.55393 1.974857,-0.991143 z M 84.428139,51.698926 c 0,-0.501989 -0.659055,-1.882595 -1.464568,-3.068014 -1.440544,-2.119951 -1.491974,-2.141134 -3.135253,-1.291362 -2.319547,1.199484 -2.507114,1.717123 -1.406967,3.882859 1.658158,3.264228 1.846583,3.373089 4.033399,2.330269 1.085365,-0.517574 1.973389,-1.351762 1.973389,-1.853752 z"
   id="path37"
   inkscape:connector-curvature="0" /><path
   style="fill:#c91735;fill-opacity:1;stroke-width:0.57669497"
   d="M 63.487667,135.01273 C 62.278829,134.55209 58.47453,132.71247 55.033668,130.92469 36.798928,121.45043 20.413467,103.83136 10.434465,82.967769 L 8.0160597,77.911487 V 53.690299 c 0,-23.984981 0.012602,-24.244763 1.2922402,-26.638732 0.7107321,-1.329649 2.1380521,-3.049515 3.1718221,-3.821925 1.03377,-0.772409 13.322542,-6.23721 27.308381,-12.144002 C 60.364732,2.3954561 65.723241,0.34601696 67.868558,0.34601696 c 2.140091,0 7.357116,1.98501094 27.059253,10.29570204 13.424399,5.662637 25.208929,10.709879 26.187839,11.216092 2.55795,1.322767 5.26317,4.631444 5.9882,7.323996 0.41482,1.540546 0.56868,10.141595 0.45679,25.536051 l -0.16873,23.213086 -2.78391,5.757221 c -5.63666,11.656804 -11.39809,19.918915 -20.24798,29.036355 -7.935161,8.17505 -16.1539,14.25175 -25.61059,18.93572 -8.398103,4.15964 -11.408364,4.8209 -15.261763,3.35249 z M 82.038656,117.81378 C 95.463364,109.01779 106.37556,96.577747 114.09777,81.265983 l 2.63896,-5.232596 -0.15101,-22.4038 L 116.43471,31.225788 92.150736,20.924274 67.866758,10.622761 43.420012,20.95037 18.973264,31.277979 l -0.150839,22.191527 -0.150839,22.191527 2.518691,5.162094 c 3.967851,8.13216 10.331846,17.115302 17.055242,24.074443 8.757508,9.06457 16.152024,14.40298 26.236772,18.94143 l 3.410303,1.53475 4.282462,-1.95158 c 2.355349,-1.07337 6.793974,-3.59715 9.8636,-5.60839 z"
   id="path39"
   inkscape:connector-curvature="0" /></svg>