/* XPM */
static char * nitrokey_app_small_xpm[] = {
"22 22 2 1",
" 	c None",
".	c #E0E0E0",
"         ...          ",
"       .......        ",
"    .....   .....     ",
"  ....         ....   ",
" ...             ...  ",
" ..               ..  ",
" ..          ..   ..  ",
" ..         ....  ..  ",
" ..     .  .....  ..  ",
" ..    ...  ..... ..  ",
" ..  ...... ....  ..  ",
" .. .......  .    ..  ",
" ..  .......      ..  ",
" ..   ......      ..  ",
"  ..  ....       ..   ",
"  ...  ..       ...   ",
"   ..           ..    ",
"    ..         ..     ",
"     ...     ...      ",
"      ...   ...       ",
"       .......        ",
"         ...          "};
