<?xml version="1.0" encoding="utf-8"?>
<!-- Generator: Adobe Illustrator 18.1.0, SVG Export Plug-In . SVG Version: 6.00 Build 0)  -->
<svg version="1.1" id="Ebene_1" xmlns="http://www.w3.org/2000/svg" xmlns:xlink="http://www.w3.org/1999/xlink" x="0px" y="0px"
	 viewBox="0 0 136.1 136.1" enable-background="new 0 0 136.1 136.1" xml:space="preserve">
<g>
	<path fill="#DFDFE1" d="M78.2,82.6L50.4,98.7c-1.9,1.1-4.3,0.4-5.4-1.5L30.1,71.5c-1.1-1.9-0.4-4.3,1.5-5.4L59.4,50L78.2,82.6z"/>
	<path fill="#DFDFE1" d="M91.5,65.3l-2.8,1.6c-0.5,0.3-1,0.1-1.3-0.3l-2.3-4c-0.3-0.5-0.1-1,0.3-1.3l2.8-1.6c0.5-0.3,1-0.1,1.3,0.3
		l2.3,4C92.1,64.4,92,65,91.5,65.3 M77.7,49.8c-0.3-0.5-0.1-1,0.3-1.3l2.8-1.6c0.5-0.3,1-0.1,1.3,0.3l2.3,4c0.3,0.5,0.1,1-0.3,1.3
		l-2.8,1.6c-0.5,0.3-1,0.1-1.3-0.3L77.7,49.8z M63.8,52.7l14.1,24.4l27.9-16.1L91.7,36.6L63.8,52.7z"/>
	<path fill="#DFDFE1" d="M67.8,10.8c-0.1,0-0.2,0-0.4,0.1L19.4,31.2c-0.5,0.2-0.8,0.7-0.8,1.3v42.2c0,0.2,0,0.4,0.1,0.6
		c2.4,6.1,16.1,36.7,48.7,49.8c0.2,0.1,0.5,0.1,0.7,0c32.7-13.1,46.3-43.7,48.7-49.8c0.1-0.2,0.1-0.4,0.1-0.6V32.5
		c0-0.6-0.3-1.1-0.8-1.3L68.2,10.9C68.1,10.8,68,10.8,67.8,10.8 M67.8,135.9c-1.5,0-2.9-0.3-4.3-0.8c-36.7-14.7-52-49-54.7-55.7
		c-0.6-1.4-0.9-3-0.9-4.6V32.5c0-4.9,2.9-9.3,7.3-11.1L63.3,1c2.9-1.2,6.1-1.2,9,0l48.1,20.3c4.4,1.8,7.3,6.2,7.3,11.1v42.2
		c0,1.5-0.3,3.1-0.9,4.6c-2.7,6.8-18,41.1-54.7,55.7C70.8,135.6,69.3,135.9,67.8,135.9"/>
</g>
</svg>

