<?xml version="1.0" encoding="utf-8"?>
<!-- Generator: Adobe Illustrator 17.1.0, SVG Export Plug-In . SVG Version: 6.00 Build 0)  -->
<!DOCTYPE svg PUBLIC "-//W3C//DTD SVG 1.1//EN" "http://www.w3.org/Graphics/SVG/1.1/DTD/svg11.dtd">
<svg version="1.1" id="Ebene_1" xmlns="http://www.w3.org/2000/svg" xmlns:xlink="http://www.w3.org/1999/xlink" x="0px" y="0px"
	 width="24px" height="24px" viewBox="0 0 24 24" enable-background="new 0 0 24 24" xml:space="preserve">
<g>
	<path d="M13.9,14.5L9,17.4c-0.3,0.2-0.7,0.1-1-0.3l-2.6-4.6c-0.2-0.3-0.1-0.7,0.3-1l4.9-2.8L13.9,14.5z"/>
	<path d="M11.6,9.1l2.5,4.3l4.6-2.7l-2.5-4.3L11.6,9.1z"/>
	<path d="M12.1,1.9L12.1,1.9L3.5,5.5C3.5,5.5,3.3,5.6,3.3,5.7v7.5c0,0.1,0,0.1,0,0.1c0.4,1.1,2.8,6.5,8.6,8.8c0.1,0,0.1,0,0.1,0
		c5.8-2.3,8.2-7.7,8.7-8.8c0-0.1,0-0.1,0-0.1V5.7c0-0.1-0.1-0.2-0.2-0.2L12.1,1.9C12.1,1.9,12.1,1.9,12.1,1.9 M12.1,24
		c-0.3,0-0.5-0.1-0.7-0.2c-6.5-2.6-9.2-8.7-9.7-9.8c-0.1-0.3-0.2-0.5-0.2-0.8V5.7c0-0.8,0.5-1.6,1.3-2l8.5-3.6
		c0.5-0.2,1.1-0.2,1.6,0l8.5,3.6c0.8,0.3,1.3,1.1,1.3,2v7.5c0,0.3-0.1,0.5-0.2,0.8c-0.5,1.2-3.2,7.3-9.7,9.8
		C12.6,23.9,12.3,24,12.1,24"/>
</g>
</svg>
