<?xml version="1.0" encoding="utf-8"?>
<!-- Generator: Adobe Illustrator 17.1.0, SVG Export Plug-In . SVG Version: 6.00 Build 0)  -->
<!DOCTYPE svg PUBLIC "-//W3C//DTD SVG 1.1//EN" "http://www.w3.org/Graphics/SVG/1.1/DTD/svg11.dtd">
<svg version="1.1" id="Ebene_1" xmlns="http://www.w3.org/2000/svg" xmlns:xlink="http://www.w3.org/1999/xlink" x="0px" y="0px"
	 width="16px" height="16px" viewBox="0 0 16 16" enable-background="new 0 0 16 16" xml:space="preserve">
<g>
	<path d="M9.3,9.7L6,11.6c-0.2,0.1-0.5,0-0.6-0.2l-1.7-3c-0.1-0.2,0-0.5,0.2-0.6l3.3-1.9L9.3,9.7z"/>
	<path d="M7.8,6.1L9.4,9l3.1-1.8l-1.7-2.9L7.8,6.1z"/>
	<path d="M8.1,1.3L8.1,1.3L2.4,3.7c0,0-0.1,0.1-0.1,0.1v5c0,0,0,0,0,0.1c0.3,0.7,1.9,4.3,5.7,5.8c0,0,0,0,0.1,0
		c3.8-1.5,5.5-5.1,5.8-5.8c0,0,0,0,0-0.1V3.8c0-0.1,0-0.1-0.1-0.1L8.1,1.3C8.1,1.3,8.1,1.3,8.1,1.3 M8.1,16c-0.2,0-0.3,0-0.5-0.1
		c-4.3-1.7-6.1-5.8-6.5-6.5C1,9.2,1,9,1,8.8v-5c0-0.6,0.3-1.1,0.8-1.3l5.7-2.4C7.8,0,8.2,0,8.5,0.1l5.7,2.4C14.7,2.7,15,3.2,15,3.8
		v5c0,0.2,0,0.4-0.1,0.5c-0.3,0.8-2.1,4.8-6.4,6.5C8.4,15.9,8.2,16,8.1,16"/>
</g>
</svg>
