<?xml version="1.0" encoding="UTF-8"?>
<svg xmlns="http://www.w3.org/2000/svg" xmlns:xlink="http://www.w3.org/1999/xlink" width="38pt" height="38pt" viewBox="0 0 38 38" version="1.1">
<g id="surface1">
<path style=" stroke:none;fill-rule:nonzero;fill:rgb(87.45098%,87.45098%,88.235294%);fill-opacity:1;" d="M 21.832031 23.0625 L 14.070312 27.558594 C 13.542969 27.863281 12.871094 27.667969 12.5625 27.140625 L 8.402344 19.964844 C 8.097656 19.433594 8.292969 18.761719 8.824219 18.457031 L 16.585938 13.960938 Z M 21.832031 23.0625 "/>
<path style=" stroke:none;fill-rule:nonzero;fill:rgb(87.45098%,87.45098%,88.235294%);fill-opacity:1;" d="M 25.546875 18.230469 L 24.765625 18.679688 C 24.625 18.761719 24.488281 18.707031 24.402344 18.59375 L 23.761719 17.476562 C 23.675781 17.339844 23.734375 17.199219 23.84375 17.117188 L 24.625 16.667969 C 24.765625 16.585938 24.90625 16.640625 24.988281 16.753906 L 25.632812 17.871094 C 25.714844 17.980469 25.6875 18.148438 25.546875 18.230469 M 21.695312 13.90625 C 21.609375 13.765625 21.667969 13.625 21.777344 13.542969 L 22.558594 13.09375 C 22.699219 13.011719 22.839844 13.066406 22.921875 13.179688 L 23.566406 14.296875 C 23.648438 14.433594 23.59375 14.574219 23.480469 14.660156 L 22.699219 15.105469 C 22.558594 15.1875 22.421875 15.132812 22.335938 15.019531 Z M 17.8125 14.714844 L 21.75 21.527344 L 29.539062 17.03125 L 25.601562 10.21875 Z M 17.8125 14.714844 "/>
<path style=" stroke:none;fill-rule:nonzero;fill:rgb(87.45098%,87.45098%,88.235294%);fill-opacity:1;" d="M 18.929688 3.015625 C 18.902344 3.015625 18.875 3.015625 18.820312 3.042969 L 5.417969 8.710938 C 5.277344 8.765625 5.191406 8.90625 5.191406 9.074219 L 5.191406 20.855469 C 5.191406 20.914062 5.191406 20.96875 5.222656 21.023438 C 5.890625 22.726562 9.714844 31.269531 18.820312 34.929688 C 18.875 34.957031 18.957031 34.957031 19.015625 34.929688 C 28.144531 31.269531 31.941406 22.726562 32.609375 21.023438 C 32.640625 20.96875 32.640625 20.914062 32.640625 20.855469 L 32.640625 9.074219 C 32.640625 8.90625 32.554688 8.765625 32.414062 8.710938 L 19.042969 3.042969 C 19.015625 3.015625 18.984375 3.015625 18.929688 3.015625 M 18.929688 37.945312 C 18.511719 37.945312 18.121094 37.859375 17.730469 37.722656 C 7.484375 33.617188 3.210938 24.039062 2.457031 22.167969 C 2.289062 21.777344 2.207031 21.332031 2.207031 20.882812 L 2.207031 9.074219 C 2.207031 7.707031 3.015625 6.476562 4.242188 5.976562 L 17.671875 0.277344 C 18.484375 -0.0546875 19.375 -0.0546875 20.1875 0.277344 L 33.617188 5.945312 C 34.84375 6.449219 35.65625 7.679688 35.65625 9.046875 L 35.65625 20.828125 C 35.65625 21.246094 35.570312 21.695312 35.402344 22.113281 C 34.648438 24.011719 30.378906 33.589844 20.128906 37.664062 C 19.769531 37.859375 19.347656 37.945312 18.929688 37.945312 "/>
</g>
</svg>
