<?xml version="1.0" encoding="utf-8"?>
<!-- Generator: Adobe Illustrator 17.1.0, SVG Export Plug-In . SVG Version: 6.00 Build 0)  -->
<!DOCTYPE svg PUBLIC "-//W3C//DTD SVG 1.1//EN" "http://www.w3.org/Graphics/SVG/1.1/DTD/svg11.dtd">
<svg version="1.1" id="Ebene_1" xmlns="http://www.w3.org/2000/svg" xmlns:xlink="http://www.w3.org/1999/xlink" x="0px" y="0px"
	 width="22px" height="22px" viewBox="0 0 22 22" enable-background="new 0 0 22 22" xml:space="preserve">
<g>
	<path d="M12.8,13.3l-4.5,2.6c-0.3,0.1-0.7,0-0.9-0.2L5,11.5c-0.1-0.3,0-0.7,0.2-0.9L9.7,8L12.8,13.3z"/>
	<path d="M10.7,8.4l2.3,3.9l4.2-2.5l-2.3-3.9L10.7,8.4z"/>
	<path d="M11,1.7L11,1.7L3.2,5c0,0-0.1,0.1-0.1,0.2v6.9c0,0,0,0,0,0.1c0.4,1,2.6,5.9,7.9,8c0,0,0,0,0.1,0c5.3-2.1,7.5-7.1,7.9-8
		c0,0,0,0,0-0.1V5.3c0-0.1,0-0.1-0.1-0.2C18.8,5.1,11.1,1.7,11,1.7 M11,22c-0.2,0-0.4,0-0.7-0.1c-6-2.4-8.4-7.9-8.9-9
		c-0.1-0.2-0.1-0.5-0.1-0.7V5.3c0-0.8,0.4-1.5,1.2-1.8l7.8-3.3c0.5-0.2,1-0.2,1.5,0l7.8,3.3c0.7,0.3,1.2,1,1.2,1.8v6.9
		c0,0.2,0,0.5-0.1,0.7c-0.4,1.1-2.9,6.7-8.9,9C11.5,21.9,11.3,22,11,22"/>
</g>
</svg>
