<?xml version="1.0" encoding="UTF-8"?>
<svg xmlns="http://www.w3.org/2000/svg" xmlns:xlink="http://www.w3.org/1999/xlink" width="18pt" height="18pt" viewBox="0 0 18 18" version="1.1">
<g id="surface1">
<path style=" stroke:none;fill-rule:nonzero;fill:rgb(87.45098%,87.45098%,88.235294%);fill-opacity:1;" d="M 10.34375 10.925781 L 6.664062 13.054688 C 6.414062 13.199219 6.097656 13.105469 5.953125 12.855469 L 3.980469 9.457031 C 3.835938 9.203125 3.929688 8.886719 4.179688 8.742188 L 7.855469 6.613281 Z M 10.34375 10.925781 "/>
<path style=" stroke:none;fill-rule:nonzero;fill:rgb(87.45098%,87.45098%,88.235294%);fill-opacity:1;" d="M 12.101562 8.636719 L 11.730469 8.847656 C 11.664062 8.886719 11.597656 8.859375 11.558594 8.808594 L 11.253906 8.277344 C 11.214844 8.214844 11.242188 8.148438 11.292969 8.105469 L 11.664062 7.894531 C 11.730469 7.855469 11.796875 7.882812 11.835938 7.933594 L 12.140625 8.464844 C 12.179688 8.515625 12.167969 8.597656 12.101562 8.636719 M 10.277344 6.585938 C 10.238281 6.519531 10.261719 6.453125 10.316406 6.414062 L 10.6875 6.203125 C 10.753906 6.164062 10.820312 6.191406 10.859375 6.242188 L 11.164062 6.773438 C 11.203125 6.835938 11.175781 6.902344 11.121094 6.945312 L 10.753906 7.15625 C 10.6875 7.195312 10.621094 7.167969 10.582031 7.117188 Z M 8.4375 6.96875 L 10.300781 10.195312 L 13.992188 8.066406 L 12.128906 4.839844 Z M 8.4375 6.96875 "/>
<path style=" stroke:none;fill-rule:nonzero;fill:rgb(87.45098%,87.45098%,88.235294%);fill-opacity:1;" d="M 8.96875 1.429688 C 8.953125 1.429688 8.941406 1.429688 8.914062 1.441406 L 2.566406 4.125 C 2.5 4.152344 2.460938 4.21875 2.460938 4.296875 L 2.460938 9.878906 C 2.460938 9.90625 2.460938 9.933594 2.472656 9.957031 C 2.789062 10.765625 4.601562 14.8125 8.914062 16.546875 C 8.941406 16.558594 8.980469 16.558594 9.007812 16.546875 C 13.332031 14.8125 15.128906 10.765625 15.449219 9.957031 C 15.460938 9.933594 15.460938 9.90625 15.460938 9.878906 L 15.460938 4.296875 C 15.460938 4.21875 15.421875 4.152344 15.355469 4.125 L 9.019531 1.441406 C 9.007812 1.429688 8.992188 1.429688 8.96875 1.429688 M 8.96875 17.972656 C 8.769531 17.972656 8.582031 17.933594 8.398438 17.867188 C 3.542969 15.921875 1.519531 11.386719 1.164062 10.5 C 1.085938 10.316406 1.042969 10.105469 1.042969 9.894531 L 1.042969 4.296875 C 1.042969 3.648438 1.429688 3.066406 2.011719 2.832031 L 8.371094 0.132812 C 8.753906 -0.0273438 9.179688 -0.0273438 9.5625 0.132812 L 15.921875 2.816406 C 16.503906 3.054688 16.890625 3.636719 16.890625 4.285156 L 16.890625 9.867188 C 16.890625 10.066406 16.847656 10.277344 16.769531 10.476562 C 16.414062 11.375 14.390625 15.910156 9.535156 17.839844 C 9.363281 17.933594 9.164062 17.972656 8.96875 17.972656 "/>
</g>
</svg>
